<svg width="1880" height="231" viewBox="0 0 1880 231" fill="none" xmlns="http://www.w3.org/2000/svg">
<path d="M0 180.22V168.27C1.39 160.9 5.85 154.48 8.35 147C10.85 139.52 9.48 130.24 10.21 122.06C12.39 97.53 10.43 73.93 6.21 49.66C8.11 47.28 9.91 45.01 11.98 42.74C14.62 39.84 21.68 40.16 22.52 44.47C23.51 49.56 22.45 55.44 23.15 60.75C25.42 77.79 26.67 94.03 24.27 110.91L28.95 108.48L32.88 119.01C35.7 118.56 47.09 101.41 48.86 98.46C59.25 81.17 68.33 64.1 77.95 45.68C74.6 44.33 70.83 51.23 66.03 48.25L86.03 19.86C88.25 16.71 90.45 11.92 94.9 10.51C97.17 9.79001 101.02 12.76 102.19 14.8C104.71 19.19 100.9 30.53 98.72 34.5C95.67 40.06 91.25 45.48 90.5 51.86C89.51 60.23 86.5 65.13 82.96 72.35C78.02 82.42 73.36 92.1 66.7 101.19C59.37 111.19 51.9 120.16 43.18 129.25C49.08 134.44 54.72 139.78 61.01 144.25C85.61 161.75 94.71 169.85 103.13 199.82C105.72 187.36 108.23 175.75 108.83 163.24C109.08 158.12 108.07 151.46 107.67 146.58C107.43 143.66 100.42 139.64 102.75 138.14L106.78 135.54L106.44 118.42C106.21 106.44 105.19 93.93 107.99 82.39C109 78.23 110.31 76.47 108.75 71.95C105.62 62.89 103.12 53.57 100.76 44.12C104.23 41.61 111.29 42.58 112.49 46.12L119.99 68.37C136.77 64.15 153.35 67.51 167.41 77.35C178.58 85.16 190.18 97.09 191.78 110.12C192.93 119.55 194.45 127.88 197.73 136.73L200.35 143.82C201.56 147.08 201.85 151.32 203.39 154.76C205.44 159.35 207.26 164.75 205.09 170.01L199.83 176.08C198.62 177.48 197.41 178.83 196.32 179.24C192.99 180.48 187.51 173.92 185.22 171.07C176.43 160.13 173.88 166.65 165.98 158.66L185.81 161.69C186.42 160.72 185.88 156.56 184.71 156.77L178.5 157.9L156.94 155.23C155.26 155.02 151.64 156.14 149.93 156.12L151.17 164.76C151.55 167.42 152.6 169.52 151.03 171.94C150.56 172.66 149.77 174.17 150.26 174.11L152.46 173.83C153.34 176.11 152.22 179.7 150.44 181.77C150.89 182.48 152.08 183.85 151.61 184.32L149.61 186.33C148.28 187.66 148.17 191.03 147.75 194.35L145.16 191.08C141.1 198.82 144.8 214.91 140.66 216.11C122.5 221.36 125.34 210.71 108.13 201.4C106.18 208.32 106.13 213.39 105.37 219.64C104.85 223.92 97.68 230.03 93.94 227.55C85.53 221.99 81.17 212.97 76.62 204.08C80.24 205.08 81.51 207.29 84.16 209.56C83.87 206.03 84.3 204 86.78 201.93L77.01 182.05C74.9 177.75 70.3 174.67 67.37 170.97C64.44 167.27 61.84 163.93 58.24 161.16L32.98 141.72C29.21 146.91 23 151.52 21.88 157.65C19.77 169.19 19.83 180.7 18.56 192.39C17.67 200.59 17.41 208.73 17.29 217.03C17.23 220.91 17.46 223.71 14.73 226.96C13 224.65 12.25 222.74 11.87 220.01C9.9 205.9 5.99 192.51 0.05 180.21L0 180.22ZM147.87 142.1L180.4 144.27C175.98 130.69 178.52 137.81 178.87 132.39C179.28 126.16 174.36 120.25 171.42 115.08L163.01 100.31C156.13 88.23 142.59 75.99 126.63 78.88L133.95 101.74C134.4 103.13 135.95 105.7 135.95 107.27C135.95 112.08 136.27 115.91 136.96 119.54L138.6 112.84L144.82 130.85C144.02 132.11 143.47 132.72 143.85 133.09C144.13 133.37 145.64 134.5 145.75 134.87L147.87 142.09V142.1ZM123.56 113.78C119.76 103.39 117.74 105.6 114.37 89.48L112.43 96.76L111.38 87.48C108.73 104.23 109.56 120.13 111.43 136.36C119.17 138.63 126.17 140.24 133.4 141.33L128.58 127.49L123.56 113.79V113.78ZM128.71 193.67C140.74 191.65 134.31 161.48 134.77 151.47C130.67 149.09 115.87 148.28 114.75 150.45L113.07 153.7C114.77 154.79 115.75 155.75 115.88 157.12L119.19 191.7L128.71 193.68V193.67Z" fill="black"/>
<path d="M1769.37 164.9C1771.37 167.03 1768.32 171.19 1768.1 173.29C1767.75 176.56 1768.02 179.75 1765.53 181.14C1762.78 182.68 1758.82 182.13 1757.04 179.26L1752.8 172.43C1751.45 170.26 1754.2 164.97 1754.57 162.61L1751.98 151.61L1756.1 154.85C1758.82 151.69 1755.8 132.31 1754.78 128.5L1751.39 115.8C1750.65 113.02 1750.16 110.86 1750.94 108.13L1750.6 103.41C1750.22 98.13 1749.63 93.83 1748.57 88.44C1748.12 72.74 1753.28 72.49 1748.22 55.55C1744.77 44.01 1741.12 32.99 1735.29 21.76C1742.73 18.58 1747.51 24.25 1749.88 30.05L1756.42 46.09L1769.42 34.01C1780.28 23.91 1798.75 25.88 1807 39.24C1814.81 51.9 1815.34 67.96 1812.31 82.57C1808.22 102.32 1805.75 116.19 1791.05 130.72C1795.01 134.54 1799.72 137.64 1805.03 139.35L1857.09 156.1C1864.98 158.64 1872.04 161.24 1879.96 164.27L1879.92 173.3C1863.45 171.47 1847.88 171.21 1831.38 170.7C1828.18 170.6 1824.72 171.66 1822 171.74C1807.9 172.14 1777.8 163.02 1766.71 152.76C1764.91 157.13 1765.84 161.13 1769.36 164.88L1769.37 164.9ZM1771.22 116.84C1771.24 117.25 1770.01 119.02 1769.79 119.38C1769.63 119.65 1771.24 119.81 1771.46 119.58L1776.28 114.31C1777.82 101.15 1779.71 108.97 1780.52 100.75C1789.49 99.24 1787.31 99.45 1790.49 93.18C1799.03 76.33 1806.6 57.96 1795.81 40.83C1794.56 38.85 1792.37 36.24 1790.63 35.58C1788.65 34.84 1784.72 35.61 1782.75 36.66C1773.76 41.44 1768.14 49.52 1764.41 58.81C1759.48 71.09 1768.26 70.36 1762.02 77.37L1764.22 77.35C1764.65 77.35 1765.7 78.83 1765.77 79.26L1768.86 96.74L1770.35 106.26C1770.14 106.85 1769.69 107.91 1769.48 108.42C1769.27 108.93 1770.9 110.22 1770.93 110.79L1771.22 116.85V116.84Z" fill="black"/>
<path d="M1722.34 167.47L1711.68 118.74C1708.84 118.76 1707.15 121.19 1704.68 122.24C1695.38 126.22 1684.31 125.92 1674.41 124.36L1647.46 120.14C1646.53 126.01 1645.96 132.23 1645.52 138.36L1641.74 190.78L1630.96 191.28C1630.26 186.27 1629.94 182.06 1630.01 177.26L1630.33 155.25L1626.59 154.96L1628.37 144.22L1630.29 148.94L1632.77 113.89C1632.83 113.03 1630.97 111.06 1630.6 110.61C1630.14 110.04 1632.67 109.08 1633 108.42C1635.46 103.52 1634.2 97.14 1634.18 91.72L1634.1 62.71C1634.06 50.16 1634.68 37.68 1638.94 25.78C1640.83 20.5 1649.29 3.46998 1657.38 6.38998C1667.86 10.18 1675.64 17.16 1682.64 25.87L1681.92 16.1C1695.19 24.17 1685.85 28.84 1689.37 36.1L1692.25 28.08C1698.5 34.37 1699.2 51.09 1700.59 54.42L1712.9 83.97C1720.39 101.96 1725.26 120.02 1729.66 138.99C1733.27 154.54 1737.2 169.23 1742 184.38C1743.6 189.42 1744.35 193.95 1744.77 199.33L1740.78 197.39L1739.52 201.34L1728.86 195.94C1727.58 195.29 1723.99 196.49 1722.83 194.92L1729.71 192.05C1727.19 183.84 1724.27 176.26 1722.34 167.46V167.47ZM1645.33 50.22C1646.02 43.06 1650.27 36.42 1651.77 29.7C1652.62 25.87 1654 23.46 1656.72 20.11C1655.62 19.63 1652.13 19.27 1650.38 19.81C1648.84 20.29 1647.2 22.91 1646.33 24.87C1640.04 39.06 1638.48 54.1 1639.5 69.74C1640.88 65.69 1642.1 61.6 1643.88 57.42C1644.97 54.87 1644.98 53.79 1645.33 50.22ZM1710.07 112.35L1701.7 86.95C1696.78 72.02 1683.17 39.76 1669.79 30.83L1661.59 51.99C1654.9 69.26 1651.87 86.87 1648.67 106.1L1688.13 109.48C1695.77 110.13 1702.16 111.21 1710.06 112.35H1710.07Z" fill="black"/>
<path d="M1082.39 158.57C1079.65 155.51 1084.72 137.27 1079.92 131.19C1076.74 127.16 1077.76 124.86 1077.87 119.82C1078.02 112.92 1076.3 104.32 1074.12 97.3401C1073.4 95.0401 1071.3 92.5301 1070.97 89.7801C1069.15 74.7601 1069.94 76.3301 1065.29 62.5301C1063.23 56.4101 1056.75 49.2501 1062.88 43.2801C1069.01 37.3101 1058.59 40.4301 1058.63 24.2601L1069.07 24.1201L1074.02 29.2001C1074.64 29.8301 1077.04 30.5601 1077.88 30.4401C1078.9 30.3001 1079.71 28.4901 1080.77 27.1701C1083.72 23.5001 1090.26 24.4801 1093.63 27.6401C1096.35 30.2001 1100.44 32.9501 1102.32 35.8901C1109.22 46.6301 1114.54 55.8301 1119.31 67.5301L1124.23 58.9001C1126.41 58.5601 1127.97 57.3701 1128.55 55.0201C1131.19 44.2301 1135.06 53.4101 1136.49 35.3901L1133.58 29.3201C1136.36 23.0201 1142.51 22.0301 1148.4 20.4401C1150.94 19.7601 1152.61 16.5301 1156.78 18.8501C1161.96 21.7301 1169.01 27.9101 1168.75 34.7501L1168.47 41.9501C1168.41 43.4001 1165.9 46.0101 1164.43 46.1901C1162.96 46.3701 1160.35 45.3201 1158.59 45.0801C1149.16 43.7901 1159.27 45.5101 1150.88 42.2401C1150.28 42.0101 1149.41 43.8301 1149.28 44.6201L1145.97 64.7601C1145 70.6401 1144.17 75.6501 1142.36 81.3901C1140.28 87.9501 1140.94 98.2301 1134.82 97.8701C1132.69 97.7401 1129.63 96.8801 1127.63 96.5801C1124.74 96.1501 1123.23 95.9301 1121.32 94.5701L1116.5 91.1301L1113.16 92.5401C1112.68 92.7401 1112.94 90.6701 1113.33 90.3501L1115.08 88.9101L1111.78 89.3801C1111.06 89.4801 1109.4 88.7501 1109.64 88.2201L1111.04 85.3201C1111.4 84.5801 1109.08 82.9801 1108.24 82.6801L1098.97 79.3601L1096.73 82.8601C1095.11 78.3701 1094.84 74.4401 1089.96 72.5601C1090.49 79.6801 1091.65 86.3201 1094.09 93.0001C1099.01 106.47 1101.43 119.86 1104.55 133.83C1106.94 144.5 1110.33 155.63 1106.81 166.5C1104.66 168.04 1090.52 167.67 1087.99 164.85L1082.39 158.59V158.57Z" fill="black"/>
<path d="M894.51 84.41L890.33 82.57C893.18 80.06 894.23 79.16 896.13 77.01C909.58 61.84 933.78 75.79 942.62 90.76C936.89 86.65 932.02 82.9 926.12 80.29C930.13 84.49 933.86 90.5 938.44 93.27C943.02 96.04 945.99 97.58 949.17 102.19C951.5 105.58 952.7 108.73 953.89 112.54L958.11 126.06C959.28 129.81 957.98 137.87 955.12 140.34C952.6 142.52 950.32 143.42 949.98 146.65C949.45 151.68 946.77 154.3 943.31 157.22C937.45 162.17 931.85 167.88 925.24 171.72C916.31 176.91 906.95 179.37 896.93 179.21C892.42 179.14 889.45 175.59 886.11 174.41C881.43 172.76 878.59 171.99 875.11 168.72C872.31 166.09 868.63 164.13 867.02 160.66L869.4 160.83C869.73 160.85 870.84 160.89 870.7 160.59C866.47 152.05 865.11 154.13 861.79 141.91C861.28 140.03 861.59 137.21 861.26 135.36C858.66 120.88 855.6 106.77 851.04 92.64C849.84 88.92 844.24 86.03 847.53 81.02C847.6 81.01 848.45 80.8 848.42 80.78C848.39 80.76 848.38 79.28 848.35 79.28L845.84 79.56L839.76 66.83C842.23 66.87 843.64 67.9 844.91 69.15L873.21 64.64C874.44 66.11 875.72 67.73 876.58 68.44L879.35 70.44C880.12 71 879.02 73.91 878.08 73.99C876.16 74.15 873.34 75.09 871.77 75.96L870.52 72.39L860.9 74.07C859.68 75.12 858.97 79.48 859.46 80.93C862.24 84.12 864.8 88.45 865.61 92.73L869.71 114.37C873.4 133.84 870.65 152.74 892.22 165.59C895.2 167.37 898.89 169.98 902.3 170.19C912.94 170.83 921.08 165.52 929.31 160.08C931.74 158.47 932.89 156.83 934.8 154.5C938.03 150.56 942.3 147.87 940.12 141.04C939.06 137.71 940.75 132.36 940.11 129.2C939.47 126.04 937.97 120.57 936.08 118.26L929.97 110.77C927.53 107.77 925.37 103.11 922.59 100.79C918.79 97.62 916.2 95.45 913.46 91.59C911.84 89.32 908.33 86.63 906.01 86.55C902.88 86.44 898.89 88.02 897.06 89.58C898.5 90.89 899.58 92.01 899.74 92.97C899.9 93.93 897.53 95.83 896.55 95.64L890.91 94.56L889.99 95.93C889.73 96.32 888.23 96.71 888.09 96.14L887.12 92.47L885.78 94.98C885.9 94.76 868.43 85.73 866.14 80.51C876.07 83.78 884.45 87.15 894.49 84.42L894.51 84.41Z" fill="black"/>
<path d="M277.13 175.87C273.61 174.5 269.33 175.7 265.39 172.72C264.88 172.33 267.58 170.99 268.38 171.15C275.13 172.51 285.08 175.89 291.66 179.11C292 179.28 293.74 179.18 293.62 178.83C291.95 173.91 288.97 178.86 286.32 173.26C293.57 174.19 300.22 177.11 307.22 179.63L322.92 185.27C339.02 191.06 353.88 198.75 367.06 209.86C369.32 211.76 372.07 212.91 374.2 213.72C372.59 214.56 374.93 216.43 376.5 217.02C377.5 217.4 379.13 215.68 380.49 214.51C381.6 213.56 384.69 212.86 386.31 212.26C390.49 210.72 388.57 205.06 388.23 201.94L387.36 193.81L378.09 192.31C375.62 183.79 367.92 189.06 361.48 183.69C365.56 183.03 368.59 186.44 370.72 182.41C373.52 182.07 377.98 183.56 382.17 184.89L389.5 183.08C391.68 176.62 392.5 170.8 390.78 164.33L388.19 161.7L383.12 137.94C380.95 136.14 377.94 133.37 378.9 129.52L374.75 125.3C375.89 121.2 375.1 118.09 374.85 114.63C374.63 111.56 376.43 108.14 373.3 104.88L372.44 108.69L369.55 103.68C368.97 102.68 368.78 100.15 368.89 99.26C365.61 98.85 364.5 96.11 362.53 93.48C360.14 90.29 357.36 86.74 354.69 83.75L342.91 70.56C341.33 68.8 339.31 66.42 337.85 64.38C339.6 58.56 351.71 65.37 355.05 67.09C359.21 69.24 357.33 72.77 357.82 75.27C359 81.36 363.26 86.74 366.63 91.76L367.83 93.55C368.12 93.98 369.17 93.38 370.47 92.98L376.35 103.98C376.97 105.14 379.91 106.83 380.62 108.02L390.25 124.2C393.97 130.45 394.28 140.95 399.24 142.64C399.86 147.9 399.58 154.41 400.62 159.75C401.27 163.13 402.46 165.85 400.25 168.61L402.4 171C402.94 171.6 401.62 173.51 400.78 174.36C399.2 175.94 399.7 180.89 402.35 181.27C417.87 183.48 412.46 179.29 420.84 175.41C424.71 173.62 426.86 171.81 430.61 168.26C432.56 171.51 433.23 183.18 432.18 185.86C430.92 189.06 423.12 189.79 416.42 191.93L400.93 196.87C400.12 199.07 400.93 202.67 401.44 205.29L403.66 216.63C404.07 218.72 405.8 220.59 404.34 221.89C402.33 223.68 401.74 223.65 398.23 224.43L401.02 228.66C397.36 232.4 391.51 223.36 380.62 223.53C377.56 227.17 373.82 230.32 370.59 230.59C365.42 231.02 360.12 229.15 357.72 225.35L364.28 226.37C362.01 223.86 359.21 222.55 355.7 221.03L357.84 217.99L314.57 190.54C311.54 188.62 307.75 187.85 304.55 186.6L277.13 175.89V175.87Z" fill="black"/>
<path d="M976.04 127.27C979.85 143.62 973.11 129.29 979.06 146.91C979.66 148.7 981.3 150.15 982.42 151.4L989.24 158.96C990.11 159.92 991.15 161.02 991.87 161.68C992.59 162.34 995.14 161.26 996.07 161.07L1000.42 160.15L1007.9 157.45L1000.69 164.72L1008.99 162.18L1004.01 167.2L1013.19 162.61L1009.65 161.91C1008.95 161.77 1009.23 159.16 1009.78 158.71L1014.67 154.69C1014.31 146.47 1024.67 141.28 1021.88 127.31C1021.94 123.77 1023.54 119.44 1024.51 115.21L1026.46 117.95C1031.61 98.36 1029.95 111.03 1028.26 94.24L1025.83 90.6L1024.89 93.42C1024.71 93.95 1023.08 93.04 1022.62 92.73C1022 92.31 1023.27 90.9 1024.52 89.62C1018.11 72.82 1022.81 77.98 1017.41 60.63C1015.39 54.12 1015.71 47.1 1009.3 43.03C1006.47 41.23 1003.65 37.81 1001.16 35.22L1006.85 34.19L1005.53 32.3C1005.35 32.05 1004.15 31.28 1004.45 31.21L1007.41 30.56C1007.96 30.44 1007.4 28.14 1007.96 28.2L1012.12 28.58L1011.36 22.85L1021.02 15.96L1022.9 22.06L1026.98 18.39L1029.71 22.71C1030.33 23.69 1027.86 26.23 1027.72 27.39C1026.92 33.98 1029.04 41.55 1029.91 48.05L1032.66 68.7C1033.1 71.96 1034.41 74.71 1035.46 77.79C1037.24 83.03 1037.05 89.52 1038.12 95.23C1038.32 96.27 1039.67 98.01 1039.13 98.61L1036.19 101.84C1035.72 102.54 1038.89 103.39 1039.6 102.88C1040.31 102.37 1040.92 101.35 1042.19 99.52C1043.99 103.85 1044.84 109.21 1044.27 114.45C1043.65 120.15 1046.74 123.48 1048.86 127.87C1050.98 132.26 1053.23 136.22 1056.33 139.25C1062.03 150.11 1059.23 142.91 1060.95 156.2L1049.16 151.72C1044.45 149.93 1042.01 146.49 1040.53 140.76C1027.24 147.93 1039.14 155.93 1013.1 166.55C1000.88 171.54 999.7 173.98 984.06 164.91L982.45 159.3L980.57 160.98C977.02 164.15 981.27 157.01 976.5 152.66C971.74 148.31 971.92 143.46 972.5 137.28L969.81 141.15C969.51 137.55 969.42 134.98 969.61 132.28L971.35 135.87C971.63 136.45 973.61 135.1 974.29 134.74L976.03 127.3L976.04 127.27Z" fill="black"/>
<path d="M260.96 166.85C261.89 167.8 263.21 170.88 263.89 172.16L257.55 172.36C261.09 174.15 263.71 174.19 266.98 177.32L243.74 171.79L242.44 182.48C241.9 186.92 241.49 191.59 241.21 196.09L240.4 209.39C235.53 210.25 233.63 199.74 226.35 203.31C225.71 203.62 223.57 202.24 223.92 201.62C224.27 201 225.47 199.53 225.77 198.8C230.75 186.65 225.03 172.06 231.07 176.21C231.68 179.99 232.34 183.67 234.55 187.31L235.27 177.31C235.47 174.47 234.2 172.02 231.57 170.53L229.6 173.93C225.53 168.79 231.3 167.34 229.78 165.22C229.35 164.61 228.21 163.3 227.8 162.59L223.74 155.61L231.81 158.46L228.38 153.88L236.14 148.43L235.16 136.33C234.09 123.1 231.59 110.72 227.36 98.54L225.25 106.92C224.46 110.08 225.9 123.66 228.31 122.91L225.73 123.72L226.07 137.18C223.58 129.38 222.95 121.28 222.88 113.63C222.76 100.24 228.93 98.37 223.06 82.73C219.81 74.07 217.46 65 215.56 56.05L212.38 41.04C215.75 39.76 220.13 41.54 221.48 45.5C222.83 49.46 223.42 54.18 224.6 58.3L229.36 74.97L235.85 68.77L237.08 71.46C239.66 68.54 241.98 64.98 244.67 62.56C254.88 53.33 282.49 41.09 291.78 52.4C298.88 61.05 299.68 57.37 299.47 69.71L299.33 77.79C299.27 81.52 299.54 84.75 298.43 88.69C294.46 102.88 302.05 96.62 287.76 125.39C287.55 125.8 285.37 126.95 285.33 126.53C285.26 125.9 285.11 124.43 285.4 123.81C287.28 119.69 289.01 113.12 289.97 108.7C290.31 107.16 292.93 104.83 293.47 103.48C294.01 102.13 291.62 99.09 291.66 97.64C292.04 83.34 294.51 67.57 275.87 59.55C273.42 58.5 269.83 56.83 266.86 57.81C247.49 64.19 243.3 71.89 234.05 87.94C232.79 90.13 235.38 92.15 235.89 93.76L242.61 115.28L241.35 117.97C241.08 118.55 243.1 120.11 243.19 120.74L244.57 130.43C240.56 131.92 239.46 138.16 241.69 140.12C242.14 140.51 244.43 140.55 244.6 141.03C244.83 141.67 244.55 143.45 243.89 143.64L240.69 144.56L242.98 147.76C242.59 150.58 242.24 154.25 242.29 157.61C242.38 164.16 248.42 160.99 251.26 165.31C253.66 165.38 258.43 164.24 260.97 166.85H260.96Z" fill="black"/>
<path d="M457.5 155.86L457.89 187.28C457.91 189.01 454.57 191.89 452.94 191.92C451.31 191.95 448.43 190.39 446.57 189.56L443.95 188.38C443.14 188.01 443.28 185.16 443.45 184.22L444.06 180.99C444.18 180.37 441.35 180.27 441.28 179.64L440.15 169.83C439.99 168.42 440.2 165.78 441.23 165.36C442.26 164.94 444.67 164.48 445.71 164.39L447.22 158.14L447.1 150.74L451.47 159.56C451.59 166.39 453.64 133.98 453.68 144.04C453.63 132.86 453.44 121.82 452.27 110.53C451.69 104.9 448.98 98.95 449.29 93.73L447.21 96.73C445.47 99.24 443.68 89.07 442.09 89.29L439.38 101.44C439.31 101.75 436.51 101.38 436.75 101.17C437.11 100.85 438.34 99.37 438.38 98.89L439.49 86.87C439.87 82.76 437.75 80.43 435.06 78.33L429.49 74C423.9 69.65 418.41 64.97 410.48 64.41C412.31 68.41 415.59 73.69 411.56 76.49C405.95 80.4 384.44 72.75 377.46 68.4L384.95 67.15C372.81 61.59 366.22 65.77 359.84 59.39C357.5 57.05 352.22 56.65 349.21 57.14L350.77 58.33C356.44 62.66 337.59 57.09 334.24 55.37L327.07 51.69C332.86 43.87 356.59 53.1 364.57 54.78L363.55 57.12C365.25 60.76 380.91 59.84 384.84 59.17L389.06 50.83C391.73 57.04 393.39 57.94 397.84 59.72C402.01 61.39 405.6 62.34 410.08 60.69C423.25 55.84 426.23 58.12 433.84 67.6C434.49 68.41 435.97 69.76 436.7 70.18C437.43 70.6 439.14 69.56 440.15 69.37C451.98 67.17 461.1 62.71 464.85 74.61C461.53 73.69 458.86 72.83 457.6 74.04C452.66 78.77 456.61 89.94 459.11 95.12C459.4 95.73 458.22 97.94 458.64 98.35L461.27 100.94L457.61 105.35L461.43 104.58C462.2 104.42 462.54 106.53 462.97 107.65L464.96 112.83C465.16 113.35 464.64 114.51 464.56 115.05C464.48 115.59 465.98 116.94 466 117.52L466.56 136.88C466.6 138.41 464.45 141.62 463.66 143.17L461.98 137.31C461.13 149.31 461.77 160.71 462.5 173.38C462.49 173.12 462.25 186.9 460.36 185.66L458.74 184.6C458.2 184.25 459.58 182.74 459.83 182.1L459.53 169.28L457.98 147.35C457.39 138.99 458.68 130.96 456.12 123.33L457.07 141.38L457.52 155.85L457.5 155.86Z" fill="black"/>
<path d="M1188.2 187.4L1186.15 182.52C1185.62 181.27 1187.6 179.03 1188.3 177.5C1189.63 174.63 1187.74 171.5 1185.41 168.61L1189.08 168.81L1190.25 165.6C1190.55 164.79 1192.4 165.26 1193.97 165.34C1198.99 148.67 1194.19 139.8 1195.87 124.85C1198.46 131.36 1197.88 136.89 1199.74 142.51L1199.7 130.7C1199.81 129.46 1200.63 129.75 1202.33 131.2C1201.42 124.37 1200.99 117.06 1199 109.88L1195.16 96.0001L1189.02 66.0101C1187.32 57.6901 1181.16 65.7101 1179.11 48.9501C1178.54 44.3001 1176.74 40.6501 1173.53 37.1501L1173.76 31.7101C1170.12 28.8101 1166.66 25.4601 1165.89 21.3101C1169.38 22.7501 1170.48 23.2301 1173.22 23.6301C1176.48 24.1101 1178.78 28.9301 1180.98 31.4501C1185.96 37.1701 1184.98 39.7001 1185.8 39.3701L1188.31 38.3601L1188.18 43.8501C1188.16 44.5201 1188.58 47.0201 1189.23 46.8301L1192.5 45.8701C1203.59 64.9601 1202.82 75.6101 1208.24 96.6901C1209.96 103.36 1210.48 111.51 1210.22 118.48C1210.15 120.34 1208.98 124.07 1208.63 125.74C1208.53 126.21 1207.01 127.07 1206.7 127.43C1206.28 127.92 1207.33 129.41 1207.47 130.07C1205.54 144.14 1209.71 137.37 1207.35 156.76C1206.92 160.33 1206.2 163.15 1204.59 166.52L1203.97 173.7C1203.61 177.82 1200.94 180.53 1196.81 181.79L1193.36 191.9C1193.06 192.77 1189.33 192.24 1189.12 191.34L1188.2 187.4Z" fill="black"/>
<path d="M550.86 163.3C557.72 171.32 565.08 171.03 568.16 179.66C569.04 182.13 567.56 185.7 565.65 188.28L567.81 189.65C568.3 189.96 564.25 194.12 556.83 188.31C545.8 179.67 549.75 179.41 540.93 171.59C540.61 171.31 538.48 172.06 538.33 171.67L537.52 169.4C536.82 167.44 538.59 163.95 538.85 161.1C539.3 156.18 527.27 141.93 524.45 136.15L515.37 117.54C512.45 111.56 510.4 105.41 510.9 98.36C514.24 101.81 514.16 107.22 516.54 110.96C518.57 114.14 520.85 117.24 522.38 120.88C523.91 124.52 525.3 127.18 527.95 130.95C535.7 120.88 534.55 116.93 539.64 108.99L539.83 117.23C539.94 122.11 541.52 127.59 539.69 132.51C538.64 135.35 536.31 146.43 539.42 147.68L541.18 137.71C544.03 142.34 544.32 145.86 546.27 149.66C548.37 153.75 549.33 157.55 550.84 163.3H550.86Z" fill="black"/>
<path d="M1379.84 124.55C1375.19 131.37 1379.75 122.55 1377.51 120.11C1376.29 118.78 1375.34 118.13 1373.37 116.87C1373.65 116.69 1376.1 115.92 1375.95 115.07C1374.96 109.61 1371.29 108.97 1372.94 107.37L1375.99 104.39L1370.65 104.2L1371.71 100.17C1371.94 99.3001 1369.23 97.7601 1368.8 97.1101C1368.68 91.8301 1368.93 88.0601 1366.17 83.0001C1364.32 79.6101 1363.97 73.9101 1362.1 70.8801C1360.57 68.4001 1359.62 66.7801 1358.91 64.1501L1356.64 55.8601L1355.31 58.6301C1353.36 56.9601 1352.62 53.3801 1354.01 51.8701L1355.42 50.3301C1355.66 50.0701 1355.09 49.5001 1354.74 48.9201C1354.47 48.4601 1353.44 49.7501 1352.7 50.4801C1350.38 48.9201 1350.13 44.9801 1352.34 42.4301L1353.84 47.5501C1356.84 47.8001 1358.95 48.8101 1359.81 51.7001L1362.72 61.4301L1367.72 71.3901L1371.4 78.7201C1376.67 89.2301 1381.56 99.24 1386.04 110.09C1392.27 125.18 1394.23 131.67 1388.98 147.95C1388.38 149.83 1386.67 152.44 1386.81 154.06C1387.19 158.65 1387.75 161.67 1386.23 166.28C1384.34 160.43 1384.56 156.36 1384.33 150.44C1384.47 149.28 1383.83 149.88 1382.55 151.37C1378.9 145.02 1379.91 138.01 1381.6 130.1L1378.06 134.72L1379.85 124.55H1379.84Z" fill="black"/>
<path d="M1304.7 116.71C1306.36 129.26 1304.9 141.56 1299.98 152.46C1295.35 138.87 1301.28 132.83 1298.61 123.26C1296.46 115.55 1295.01 108.03 1291.97 100.7C1287.8 90.65 1278 80.2 1270.48 73.27C1267.45 73.82 1265.8 73.15 1263.41 71.83L1251.19 65.07C1248.06 63.34 1244.68 61.45 1241.46 59.93C1237.52 58.06 1232.77 57.68 1230 53.81C1231.24 48.37 1248.63 55.78 1249.74 57.06C1252.59 60.82 1264.15 67.99 1267.45 68.55C1278.6 70.43 1274.57 75.38 1282.65 72.02C1295.28 83.55 1297.27 82.97 1305.29 98.47L1301.09 101.56L1304.23 103.64C1304.72 103.97 1304.08 105.79 1303.5 105.69L1301.38 105.32C1302.31 109.2 1304.25 113.42 1304.69 116.72L1304.7 116.71Z" fill="black"/>
<path d="M1220.66 30.7299L1205.87 30.5599C1204.76 30.5499 1202.74 27.6699 1203.44 27.0399L1231.36 28.9399C1234.67 29.1699 1237.85 30.8399 1241.37 29.7999C1241.88 29.6499 1243.82 29.6299 1243.87 30.0999L1244.1 32.3099L1247.19 29.3499C1247.89 28.6799 1250.49 30.7599 1251.42 30.3399L1264.17 24.5999C1266.7 23.4599 1278.76 13.2699 1278.97 12.1599C1279.13 11.3099 1278.26 9.92994 1277.34 8.21994L1285.97 3.43994L1290.21 8.93994C1291.29 10.3499 1292.49 13.9999 1293.16 15.8899C1292.08 19.7399 1289.66 25.3799 1286.24 27.4999C1269.86 37.6799 1262.4 36.4399 1243.02 36.4899C1239.16 36.4999 1235.86 35.4699 1233.46 32.9799L1215.12 32.5799L1220.67 30.6999L1220.66 30.7299Z" fill="black"/>
<path d="M1253.93 217.6L1263.13 213.58L1256.17 211.54L1261.02 210.51C1267.21 206.78 1274.12 203.2 1279.32 198.2C1281.76 195.85 1280.3 189.74 1285 188.79C1289.02 187.98 1287.53 183 1289.07 181.34C1291.4 178.83 1294.19 176.42 1296.05 173.93L1302.4 165.44L1301.22 174.16C1303.41 176.14 1302.04 179.07 1301.55 182C1301.06 184.93 1300.1 186.66 1298.59 189.18L1292.57 199.21C1290.58 202.53 1288.79 205.93 1285.85 208.64C1279.73 214.27 1272.87 219.37 1264.5 220.42L1244.93 222.87C1248.48 220.52 1251.03 218.87 1253.94 217.6H1253.93Z" fill="black"/>
<path d="M1342.59 37.24C1341.63 36.96 1340.56 36.52 1340.12 36.31C1339.68 36.1 1340.35 34.42 1340.82 34.56L1343.24 35.29C1345.44 35.95 1347.78 36.12 1349.98 35.52C1354.24 38.57 1360.66 39.02 1364.79 34.83L1362.63 32.48C1375.49 28.85 1367.85 32.15 1382.77 27.46C1386.75 26.21 1392.96 24.84 1392.7 19.17C1392.61 17.19 1391.91 13.14 1391.64 11.02C1391.81 10.25 1394.66 9.37996 1395.45 9.92996C1396.4 10.59 1398.04 12.48 1399.11 13.04C1401.72 14.4 1406.67 15.3 1407.93 17.99C1410.36 23.18 1407.41 27.39 1404.37 30.94C1400.45 35.54 1395.65 37.57 1389.77 39.67C1381.48 42.62 1372.57 40.48 1363.73 40.67C1360.12 40.75 1356.15 41.43 1353.38 39.68L1350.72 40.67C1350.1 40.9 1348.94 39.07 1348.31 38.88L1342.59 37.22V37.24Z" fill="black"/>
<path d="M1360.01 171.4L1370.49 173.05L1364.01 166.93L1386.94 169.74C1390.5 170.18 1394.41 171.79 1397.57 169.44C1399.74 167.83 1402.29 164.37 1403.27 161.84L1394.74 163.55L1402.67 155.9L1404.76 159.07L1408.75 150.99L1408.3 157.72C1408.19 159.29 1410.91 160.63 1412.35 162.06L1419.71 169.41C1417.81 176.2 1412.09 183.72 1404.2 183.55C1399.48 183.45 1394.23 181.59 1389.49 180.43C1385.77 179.52 1381.38 175.54 1377.32 176.34C1370.54 177.67 1367.17 175.77 1360 171.41L1360.01 171.4Z" fill="black"/>
<path d="M971.37 129.13C971.25 129.85 970.37 131.76 969.82 131.57L967.69 130.82C967.13 130.62 968.55 128.33 968.45 127.69L965.68 109.68C964.4 101.36 957.52 88.23 953.03 80.02C949.26 73.12 942.05 68.68 934.34 68.21L938.51 62.47L948.21 59.37C949.65 58.81 952.49 56.04 953.89 56.68C955.7 57.51 957.89 60.61 958.16 62.33L953.36 65.83C956.22 70.89 958.7 75.78 961.72 80.47C964.12 84.2 966.19 87.47 967.67 91.69C971.66 103.05 975.43 114.02 976.48 125.99C972.75 125.38 974.15 123.06 972.83 120.32L971.37 129.14V129.13Z" fill="black"/>
<path d="M501.92 89.98L502.42 92.59C502.54 93.23 501.53 94.12 500.44 94.69L495.75 81.62L477.62 65.1L464.07 68.59C466.68 64 470.59 64.36 474.59 63.35L477.52 59.65C478.95 61.33 480.14 63.18 481.23 62.86L486.63 61.27C491.67 59.79 497.47 67.43 500.03 72.16L503.49 74.93C503.78 78.48 504.23 82.19 504.29 85.51L504.45 93.78L501.92 89.97V89.98Z" fill="black"/>
<path d="M1624.4 93.82L1621.25 99.5801C1619.95 86.1201 1622.14 75.4701 1620.09 61.7901C1617.53 57.9201 1616.39 53.6801 1618.7 49.2301C1619.4 47.8901 1622.47 47.8 1623.49 48.94C1624.74 50.33 1624.83 52.35 1624.91 54.92L1628.08 47.3601C1628.31 45.1701 1628.86 46.0501 1629.42 47.5701C1628.07 53.5401 1627.79 58.8401 1628.17 64.7101C1628.52 70.2301 1627.92 75.78 1627.82 81.27L1627.68 88.7L1626.02 104.54L1625.78 106.58C1623.75 123.9 1625.17 83.4301 1624.39 93.8301L1624.4 93.82Z" fill="black"/>
<path d="M577.75 35.99L574.32 42.69C571.27 39.95 569.19 38.61 565.47 37.07C564.16 34.27 565.83 26.31 569.13 25.08L575.65 22.66C574.94 21.58 573.94 20.05 574.1 20.3L582.58 20.45C584.78 25.79 586.79 32.58 586.42 39.56C584.96 37.66 584.53 36.87 583.3 34.85L582.27 40.24L577.74 36L577.75 35.99Z" fill="black"/>
<path d="M641.96 206.03L637.61 206.91C627.33 196.52 623.22 178.95 621.29 164.18C622.71 163.31 625.68 162.67 626.65 163.05L632.79 185.21C633.93 189.34 632.93 192.33 637.58 194.49C639.29 196.9 640.61 201.68 641.96 206.02V206.03Z" fill="black"/>
<path d="M598.45 81.4099C599.03 87.6599 602.06 95.1999 600.12 96.5099C596.01 99.2799 596.4 77.3599 594.08 75.1299L591.95 76.7099L586.05 52.3299C585.1 48.4099 585.45 43.6999 586.82 39.1899C588.64 42.9199 588.49 47.0999 589.22 50.9099C592.08 52.9099 593.42 57.5199 593.49 60.1799C593.51 61.0699 591.5 61.7499 590.47 62.4699C592.15 63.3899 594.29 63.7599 594.33 64.7199L594.56 70.1399C596.83 73.1199 598.05 77.1499 598.45 81.4099Z" fill="black"/>
<path d="M1606.52 26.5L1605.61 27.58C1605.34 27.91 1603.47 27.89 1603.22 27.54L1597.2 18.83C1593.91 14.07 1587.64 14.16 1581.65 15.26L1581.49 9.81999C1585.13 11.7 1586.73 11.35 1589.71 8.98999L1598.57 13.05C1599.53 13.49 1602.38 13.18 1602.62 14.2C1603.56 18.15 1600.04 20.68 1602.94 21.49L1605.88 22.32C1606.44 22.48 1607.64 23.33 1608.07 23.73C1608.63 24.27 1607.18 25.71 1606.51 26.5H1606.52Z" fill="black"/>
<path d="M1541.06 43.6699L1534.83 72.8899C1531.53 52.8799 1531.74 56.6799 1536.35 38.8799C1536.81 37.1099 1537.84 35.3199 1539.31 33.5699L1537.22 48.7899C1540.04 47.6499 1535.62 43.7599 1541.07 43.6699H1541.06Z" fill="black"/>
<path d="M1388.8 223.22C1388.45 223.47 1386.24 223.8 1385.44 223.75C1384.46 223.69 1384.26 220.71 1384.66 219.74C1386.23 215.93 1385.24 213.63 1381.41 210.61C1385.08 209.52 1388.17 209.96 1391.3 211.89C1394.37 207.78 1389.18 192.3 1392.22 195.52C1393.98 197.38 1392.34 202.22 1396.33 212.2C1397.21 214.39 1397.09 216.6 1394.99 217.57C1393.64 218.19 1391.59 217.39 1388.42 216.37L1388.81 223.23L1388.8 223.22Z" fill="black"/>
<path d="M345.71 177.03C347.78 180.69 341.32 183.36 338.8 182.91C336.28 182.46 331.86 177.69 333.65 175.13C336.03 171.72 343.61 173.34 345.71 177.03Z" fill="black"/>
<path d="M550.11 91.07C545.2 88.87 554.38 64.36 554.97 61.72C557.4 69 555.44 75.19 553.32 81.52L550.12 91.07H550.11Z" fill="black"/>
<path d="M1348.39 33.03L1344.02 31.3C1344.01 27.35 1343.68 24.03 1343.2 20.06L1352.39 18.37C1352.16 20.23 1351.75 23.32 1351.2 24.93L1348.4 33.03H1348.39Z" fill="black"/>
<path d="M1223.82 57.52L1216.78 52.62C1216.06 48.52 1215.24 47.06 1212.05 43.06C1213.98 42.33 1217.51 41.76 1219.73 41.82C1216.24 54.29 1227.05 50.26 1223.83 57.52H1223.82Z" fill="black"/>
<path d="M1170.87 223.03L1174.55 216.56C1174.97 215.82 1175.96 213.15 1175.21 212.91L1171.17 211.6L1178.03 208.07C1178.68 213.01 1178.92 216.41 1177.94 220.91C1177.59 222.5 1174.5 223.37 1170.88 223.02L1170.87 223.03Z" fill="black"/>
<path d="M1553.39 138.96C1553.46 136.08 1552.68 128.9 1552.03 126.12L1551.56 124.08C1550.84 120.99 1559.63 126.96 1556.92 136.93C1556.68 137.81 1553.52 139.28 1553.39 138.95V138.96Z" fill="black"/>
<path d="M1343 172.63C1337.84 172.86 1336.23 172.77 1332.57 173.38C1330.49 174.05 1332.31 169.25 1332.68 163.26C1332.74 162.31 1336.1 162.37 1336.47 163.29C1336.9 164.36 1336.32 166.14 1335.71 168.29L1342.99 172.63H1343Z" fill="black"/>
<path d="M1618.62 49L1614.82 44.7C1613.92 43.68 1612.54 43.66 1610.72 43.95C1609.67 41.03 1612.43 38.69 1616.04 37.03C1617.71 40.29 1619.72 44.14 1618.63 49H1618.62Z" fill="black"/>
<path d="M276.74 152.07C273.38 158.81 266.57 157.12 268.76 155.84C269.19 155.59 270.93 154.55 271.24 154.13L279.21 143.32C282.25 147.66 275.19 147.43 276.74 152.06V152.07Z" fill="black"/>
<path d="M1545.08 24.38L1535.78 24.99C1535.09 23.49 1537.29 20.96 1539.07 20.71L1543.38 20.1C1544.35 19.96 1546.01 24.02 1545.08 24.38Z" fill="black"/>
<path d="M1312.6 32.12L1315.97 32.4C1316.61 32.45 1316.8 34.81 1316.55 35.26C1312.43 35.4 1307.37 36.15 1304.49 32.06C1306.72 31.79 1309.56 31.88 1312.6 32.13V32.12Z" fill="black"/>
<path d="M1601.81 10.1399C1600.14 10.7899 1596.57 10.4299 1595.51 9.31995C1594.38 8.12995 1593.55 5.38995 1593.37 3.56995C1597.58 5.15995 1598.69 5.85995 1601.81 10.1399Z" fill="black"/>
<path d="M605.59 109.95L605.36 112.54C605.33 112.87 603.94 111.2 603.91 110.86L602.91 97.39C605.89 100.29 606.02 105.11 605.58 109.95H605.59Z" fill="black"/>
<path d="M1556.09 154.59C1554.7 155.55 1551.92 155.48 1548.54 154.26C1550.75 151.92 1551.52 151.24 1554.26 148.9L1556.08 154.59H1556.09Z" fill="black"/>
<path d="M1571.16 0H1572.16C1573.74 4.43 1572.87 9.44 1571.98 14.61C1571.09 19.75 1574.35 24.3 1576.04 28.98C1582.19 46.03 1585.62 63.37 1587.28 81.62L1593.16 146.34C1594.43 160.32 1595.14 174.25 1594.75 188.14C1588.64 187.83 1589.19 195.85 1586.19 193.98C1578.78 189.38 1577.73 189.6 1577.67 184.22L1577.37 156.36L1575.45 111.77C1575.31 108.46 1574.86 105.65 1574.46 102.35L1571.2 75.65C1569.56 62.22 1567.96 49.37 1561.83 36.53C1558.58 60.06 1551.35 88.73 1543.04 111.33C1541.93 114.35 1542.66 118.35 1543.06 121.45C1542.92 123.39 1539.29 127.59 1537.21 127.86C1532.64 128.47 1527.61 124.79 1524.01 123.18C1518.08 120.52 1517.39 117.47 1516.36 111.45C1515.76 107.89 1512.74 103.04 1511.31 99.33L1507.49 97.69C1508.23 95.16 1508.62 93.59 1508.11 91.28C1507.8 89.88 1505.8 88.5 1503.84 87.78C1498.62 74.24 1491.04 60.79 1478.67 50.24C1475.78 71.4 1482.67 87.3 1484.99 107.35C1484.27 108.56 1482.44 111.09 1483.06 112.02L1485.68 116C1486.7 117.56 1487.45 121.93 1486.68 123.71L1485.32 126.82C1485.04 127.46 1487.24 128.53 1487.98 129.15L1492.41 165.2C1493.41 173.33 1501.46 179 1494.77 182.51C1493.29 183.29 1489.44 183.46 1487.91 182.67L1474.23 175.6L1472.03 182.15C1467.95 180.55 1473.11 174.59 1467.32 169.59C1466.65 171.02 1464.82 172.75 1463.75 172.22C1459.65 170.2 1463.5 163.68 1460.58 158.02L1457.54 161.53C1454.75 153.97 1452.56 146.16 1453 138.09L1457.62 152.21C1456.79 146.8 1456.24 141.95 1458.55 136.07L1461.63 145.15L1464.08 146.47L1468.27 160.15L1469.48 157.51C1469.7 157.02 1471.7 155.9 1471.91 155.29C1475.2 145.57 1471.59 128.82 1471.3 117.61C1470.98 105.46 1468.72 95.02 1464.94 83.56C1463.7 79.79 1464.56 75.77 1461.32 72.51L1459.89 62.5C1458.07 61.97 1456.1 61.66 1455.42 60.94C1456.32 61.9 1450.19 52.59 1450.71 50.92L1448.8 53.87C1448.49 54.35 1446.58 53.54 1446.35 53.47L1444.07 58.85L1442.73 52.26C1441.26 54.74 1440.1 56.04 1438.72 58.04L1430.45 70.07C1427.98 63.58 1430.81 60.69 1428.85 53.87L1433.68 47.51C1434.37 46.61 1434.35 43.87 1435.22 43.42C1447.36 37.12 1433.21 43.31 1444.24 36.72L1444.63 26.36C1445.93 26.24 1447.59 26.74 1448.08 26.12L1450.4 23.12C1452.89 23.22 1456.55 22.9 1459.39 22.4C1461.51 23.22 1462.76 28.89 1460.51 31.44L1464.59 37.5C1468.65 33.83 1470.64 30.15 1469.24 23.71L1472.96 26.85L1476.78 22.06L1475.16 15.53L1477.92 16.98C1478.25 17.15 1478.56 16.79 1480.33 15.85L1483.14 28.44L1485.45 25.47L1484.76 32.52C1493.38 42.35 1501.92 51.91 1509.02 63C1516.12 74.09 1521.46 85.71 1527.49 97.34L1529.31 95.01C1529.59 94.65 1530.54 95.49 1530.68 95.93L1531.52 98.66L1535.24 93.24L1534.66 102.68C1539 94.21 1542.88 85.54 1545.38 75.91L1556.88 31.61C1557.53 29.1 1555.76 27.37 1555 25.28L1551.82 16.46C1554.16 13.66 1558.61 11 1562.1 9.35L1558.11 7.55L1563.08 5.03C1566.12 3.49 1568.95 2.07 1571.16 0.01V0Z" fill="black"/>
<path d="M1464.01 25.82L1460.81 21.01C1459.86 19.58 1460.59 16.12 1461.44 14.87L1463.48 17.06C1463.93 17.54 1465.55 17.03 1466.32 16.96C1466.91 16.9 1468.49 17.96 1468.15 18.42L1466.64 20.45L1464.01 25.82Z" fill="black"/>
<path d="M1467.16 6.70996L1472.19 18.28L1470.03 19.22L1465 7.64996L1467.16 6.70996Z" fill="black"/>
<path d="M819.36 198.55H826.6L822.12 203.8C813.27 214.15 815.04 209.56 811.66 210.61C811.14 210.77 810.23 211.65 810.55 212.08L812.31 214.41L797.3 220.88L800.89 222.69C784.72 228.13 792.61 228.22 779.43 229.57C775.1 230.01 769.48 232.45 764.98 228.52L764.69 221.11L767.77 216.21L761.79 207.45C768.55 207.96 773.53 213.72 779.54 212.21C804.37 205.95 828.98 166.69 828.85 141.9C828.74 121.46 805.44 123.52 790.16 123.56L792.18 132.94C793.36 138.44 794.69 144.72 794.84 150.41C794.97 155.49 787.96 155.3 784.67 155.25L776.37 157.38L769.41 150.42L741.51 75.6C735.82 60.35 738.39 44.34 748.45 31.62C760.87 15.91 780.15 6.17995 800.58 6.93995C804.08 7.06995 810.07 11.24 811.15 14.19C815.4 25.76 811.59 30.7399 809.8 42.8499C808.36 52.6199 805.93 61.63 803.23 71.22C802.64 73.33 800.1 75.92 798.81 77.61L795.94 81.36L798.33 82.31L794.07 93.31C793.15 95.69 791.6 98.53 790.5 100.99L788.57 105.31C788.03 106.53 787.88 109.31 787.54 111.47L824.44 111.74C827.13 111.76 831.54 112.94 833.97 113.65C844.72 116.77 848.4 126.44 847.26 136.42L845.52 151.69C845.25 154.06 844.84 156.64 844.45 158.77L841.95 158.03C840.67 157.65 839.36 165.22 836.66 168.23L836.72 170.52C830.91 177.85 828.7 178.16 828.91 187.69C831.95 183.78 832.58 181.27 836.45 179.83C834.26 184.88 830.18 192.46 826.23 194.45C823.6 195.77 822.16 196.08 819.36 198.56V198.55ZM781.88 95.17C792.61 75.97 800.41 56.78 802.07 36.22C802.07 31.25 801.17 26.08 798.43 22.26C795.36 17.97 791.21 18.79 787.22 20.75C777.58 25.48 767.95 30.1499 760.75 38.4199C764.75 39.7899 769.42 42.29 769.21 46.66C769.11 48.64 770.37 50.64 770.76 52.38C773.96 66.82 776.46 80.54 781.88 95.17ZM763.49 106.03C760.05 81.66 755.8 68.45 756.18 44.29C748.53 52.38 747.02 62.48 749.18 73.23C752.81 91.25 759.04 108.23 767.32 124.76C767.31 118.21 765.28 112.53 763.48 106.03H763.49Z" fill="black"/>
</svg>
